<svg width="40" height="40" viewBox="0 0 40 40" fill="none" xmlns="http://www.w3.org/2000/svg">
<g clip-path="url(#clip0_16_58)">
<path fill-rule="evenodd" clip-rule="evenodd" d="M22.1422 6.85485L23.1723 0.237842C22.1523 0.0801152 21.1096 0 20.0695 0H20.0544V13.5019H20.0695C20.6398 13.5019 21.2051 13.5745 21.7503 13.7197L23.5015 7.14026C23.0543 7.02259 22.5995 6.92746 22.1397 6.85736L22.1422 6.85485Z" fill="white"/>
<path fill-rule="evenodd" clip-rule="evenodd" d="M16.8033 14.3731L13.4316 8.58479C13.0346 8.81512 12.6477 9.06548 12.2758 9.33337L8.24838 3.83546C9.09508 3.21958 9.99705 2.66628 10.9292 2.1906L13.9944 8.15167C14.6174 7.83371 15.2631 7.56583 15.9264 7.35052L13.8386 0.983861C14.8335 0.660897 15.8661 0.413041 16.9013 0.247803L17.9741 6.96997C17.5193 7.04257 17.0696 7.14021 16.6249 7.25788L18.3685 13.7221C17.8208 13.8698 17.2932 14.0877 16.8008 14.3731H16.8033Z" fill="white"/>
<path fill-rule="evenodd" clip-rule="evenodd" d="M8.26095 14.0252L2.17328 10.9382C1.69592 11.8696 1.29141 12.8485 0.969818 13.8424L7.46953 15.9354C7.68309 15.282 7.94941 14.6385 8.26095 14.0252Z" fill="white"/>
<path fill-rule="evenodd" clip-rule="evenodd" d="M31.5237 13.3793L25.7175 16.7417C26.0039 17.2324 26.2225 17.7581 26.3707 18.3039L32.8553 16.5614C32.9759 17.0045 33.0739 17.4527 33.1443 17.9058L39.8902 16.8343C39.7244 15.8003 39.4756 14.7738 39.1515 13.7799L32.7624 15.8604C32.5463 15.1994 32.2775 14.556 31.9584 13.9376L37.938 10.8807C37.4607 9.95442 36.9054 9.05563 36.2873 8.21191L30.7725 12.2277C31.0439 12.5982 31.2926 12.9838 31.5263 13.3793H31.5237Z" fill="white"/>
<path fill-rule="evenodd" clip-rule="evenodd" d="M29.1545 2.16309C28.2174 1.68991 27.2375 1.28683 26.2401 0.963867L24.1422 7.44068C24.7979 7.65098 25.4436 7.91636 26.0592 8.22931L29.1545 2.16059V2.16309Z" fill="white"/>
<path fill-rule="evenodd" clip-rule="evenodd" d="M26.73 8.46475L23.3206 14.3632C23.8155 14.6462 24.2703 14.9942 24.6748 15.3972L34.2397 5.83347C33.4985 5.09741 32.692 4.41393 31.8453 3.80054L27.9008 9.22084C27.5239 8.95045 27.1345 8.69758 26.7325 8.46475H26.73Z" fill="white"/>
<path fill-rule="evenodd" clip-rule="evenodd" d="M14.4165 16.7592L8.49963 13.3568C8.73077 12.9562 8.98704 12.5682 9.25839 12.1926L3.82144 8.25947C4.43699 7.41576 5.12289 6.6121 5.86406 5.87354L15.4566 15.4072C15.0521 15.8103 14.7029 16.266 14.419 16.7567L14.4165 16.7592Z" fill="white"/>
<path fill-rule="evenodd" clip-rule="evenodd" d="M7.16551 16.5737L13.7657 18.3237C13.62 18.867 13.5471 19.4303 13.5471 20.0012H0C0 18.9622 0.0803985 17.9182 0.241195 16.8992L6.88161 17.9307C6.95447 17.4725 7.04743 17.0219 7.16803 16.5737H7.16551Z" fill="white"/>
<path fill-rule="evenodd" clip-rule="evenodd" d="M31.8805 25.9749L37.9682 29.0619C38.443 28.1305 38.8501 27.1516 39.1716 26.1577L32.6719 24.0647C32.4584 24.7181 32.1921 25.3616 31.8805 25.9749Z" fill="white"/>
<path fill-rule="evenodd" clip-rule="evenodd" d="M23.3382 25.6267L26.7099 31.4151C27.1068 31.1847 27.4938 30.9344 27.8656 30.6665L31.8931 36.1644C31.0464 36.7803 30.1444 37.3336 29.2123 37.8092L26.1471 31.8482C25.524 32.1661 24.8808 32.434 24.215 32.6493L26.3004 39.016C25.3054 39.3389 24.2728 39.5868 23.2377 39.752L22.1649 33.0299C22.6196 32.9573 23.0693 32.8596 23.514 32.742L21.7704 26.2777C22.3181 26.13 22.8457 25.9121 23.3382 25.6267Z" fill="white"/>
<path fill-rule="evenodd" clip-rule="evenodd" d="M8.61772 26.6209L14.424 23.2585C14.1376 22.7678 13.919 22.2421 13.7708 21.6963L7.28612 23.4388C7.16552 22.9957 7.06754 22.5475 6.99719 22.0944L0.251251 23.1659C0.417073 24.1999 0.665806 25.2264 0.989912 26.2203L7.37908 24.1398C7.59515 24.8008 7.86399 25.4442 8.18307 26.0626L2.20343 29.1195C2.6808 30.0483 3.23605 30.9446 3.85411 31.7883L9.36894 27.7725C9.0976 27.402 8.84887 27.0164 8.61521 26.6209H8.61772Z" fill="white"/>
<path fill-rule="evenodd" clip-rule="evenodd" d="M10.987 37.8394C11.9241 38.3126 12.904 38.7156 13.9014 39.0386L15.9993 32.5618C15.3435 32.3515 14.6978 32.0861 14.0823 31.7732L10.987 37.8394Z" fill="white"/>
<path fill-rule="evenodd" clip-rule="evenodd" d="M13.4115 31.5354L16.8209 25.6395C16.3259 25.3565 15.8712 25.0085 15.4667 24.6055L5.90176 34.1692C6.64293 34.9053 7.44943 35.5888 8.29613 36.2021L12.2407 30.7818C12.6175 31.0522 13.007 31.3051 13.409 31.5379L13.4115 31.5354Z" fill="white"/>
<path fill-rule="evenodd" clip-rule="evenodd" d="M25.725 23.241L31.6418 26.6434C31.4107 27.044 31.1544 27.432 30.8831 27.8076L36.32 31.7407C35.7045 32.5844 35.0186 33.3881 34.2774 34.1267L24.6848 24.593C25.0893 24.1899 25.4386 23.7342 25.7225 23.2435L25.725 23.241Z" fill="white"/>
<path fill-rule="evenodd" clip-rule="evenodd" d="M18.3911 26.2828L16.64 32.8622C17.0872 32.9799 17.5419 33.075 18.0017 33.1451L16.9691 39.7622C17.9892 39.9199 19.0318 40 20.072 40H20.0871V26.4981H20.072C19.5017 26.4981 18.9363 26.4255 18.3911 26.2803V26.2828Z" fill="white"/>
<path fill-rule="evenodd" clip-rule="evenodd" d="M26.3757 21.6763C26.5214 21.133 26.5943 20.5697 26.5943 19.9988H40.144C40.144 21.0378 40.0636 22.0818 39.9028 23.1008L33.2624 22.0693C33.1895 22.5275 33.0965 22.9781 32.9759 23.4263L26.3757 21.6763Z" fill="white"/>
</g>
<defs>
<clipPath id="clip0_16_58">
<rect width="40" height="40" fill="white"/>
</clipPath>
</defs>
</svg>
